<svg viewBox="0 0 1289.69 425.043" xmlns="http://www.w3.org/2000/svg" xmlns:xlink="http://www.w3.org/1999/xlink" width="1289.688110" height="425.043213" fill="none" customFrame="#000000">
	<defs>
		<filter id="pixso_custom_mask_type_alpha">
			<feColorMatrix type="matrix" values="0 0 0 0 1 0 0 0 0 1 0 0 0 0 1 0 0 0 1 0 " />
		</filter>
	</defs>
	<mask id="mask_0" width="206.554321" height="246.799835" x="34.628174" y="125.628708" maskUnits="userSpaceOnUse">
		<g filter="url(#pixso_custom_mask_type_alpha)">
			<rect id="Прямоугольник 13" width="206.554321" height="246.799835" x="34.628174" y="125.628708" fill="rgb(196,196,196)" />
		</g>
	</mask>
	<path id="" d="M468.242 282.607L468.242 181.814L497.035 181.814L528.746 236.236L560.281 181.814L589.074 181.814L589.074 282.607L560.281 282.607L560.281 232.65L539.679 268.193L517.636 268.193L497.035 232.65L497.035 282.607L468.242 282.607ZM607.778 282.607L607.778 181.814L636.571 181.814L636.571 282.607L607.778 282.607ZM683.389 282.607L645.209 181.814L674.741 181.814L698.225 243.583L721.534 181.814L751.065 181.814L712.92 282.607L683.389 282.607ZM759.698 282.607L759.698 181.814L788.491 181.814L788.491 282.607L759.698 282.607ZM922.418 282.607L922.418 181.814L951.211 181.814L951.211 282.607L922.418 282.607ZM969.938 282.607L969.938 181.814L998.731 181.814L1036.17 237.115L1036.17 181.814L1065 181.814L1065 282.607L1036.17 282.607L998.731 227.306L998.731 282.607L969.938 282.607ZM1080.83 240.841L1080.83 181.814L1109.63 181.814L1109.63 240.841Q1109.63 247.908 1114.44 252.97Q1119.26 257.997 1126.89 257.997Q1134.55 257.997 1139.37 252.97Q1144.18 247.908 1144.18 240.841L1144.18 181.814L1172.98 181.814L1172.98 240.841Q1172.98 259.58 1159.93 272.552Q1146.93 285.49 1126.89 285.49Q1106.88 285.49 1093.84 272.552Q1080.83 259.58 1080.83 240.841ZM1179.45 282.607L1215.17 232.193L1179.45 181.814L1212.15 181.814L1231.45 209.025L1250.75 181.814L1283.44 181.814L1247.86 232.193L1283.44 282.607L1250.75 282.607L1231.45 255.396L1212.15 282.607L1179.45 282.607Z" fill="rgb(197,197,197)" fill-rule="nonzero" />
	<g id="OL">
		<path id="Эллипс 1" d="M893.359 261.46C887.818 269.753 879.942 276.217 870.727 280.034C861.513 283.851 851.373 284.849 841.591 282.904C831.809 280.958 822.823 276.155 815.77 269.102C808.718 262.05 803.915 253.064 801.969 243.282C800.023 233.499 801.022 223.36 804.839 214.145C808.656 204.93 815.119 197.054 823.412 191.513C831.705 185.972 841.455 183.014 851.429 183.014L851.429 211.759C847.14 211.759 842.948 213.031 839.382 215.414C835.816 217.796 833.036 221.183 831.395 225.145C829.754 229.108 829.325 233.468 830.161 237.674C830.998 241.88 833.063 245.744 836.096 248.777C839.128 251.809 842.992 253.875 847.199 254.711C851.405 255.548 855.765 255.119 859.727 253.477C863.69 251.836 867.076 249.057 869.459 245.491C871.842 241.925 873.114 237.732 873.114 233.444L901.858 233.444C901.858 243.417 898.901 253.167 893.359 261.46Z" fill="rgb(196,196,196)" fill-rule="evenodd" />
		<rect id="Rectangle 1" width="48.459156" height="28.760332" x="853.398987" y="202.713242" fill="rgb(196,196,196)" />
		<rect id="Rectangle 2" width="59.629261" height="28.760328" x="0.000000" y="0.000000" fill="rgb(196,196,196)" transform="matrix(0,-1,-1,0,882.159,211.913)" />
	</g>
	<path id="" d="M477.896 333.918L477.896 291.921L489.894 291.921L503.106 314.597L516.246 291.921L528.243 291.921L528.243 333.918L516.246 333.918L516.246 313.103L507.662 327.912L498.478 327.912L489.894 313.103L489.894 333.918L477.896 333.918ZM563.035 333.918L560.881 328.22L545.706 328.22L543.538 333.918L531.233 333.918L547.141 291.921L559.446 291.921L575.339 333.918L563.035 333.918ZM549.353 318.625L557.219 318.625L553.323 308.181L549.353 318.625ZM578.336 333.918L578.336 291.921L590.334 291.921L590.334 307.873L603.664 291.921L617.638 291.921L600.119 312.912L617.638 333.918L603.664 333.918L590.334 317.951L590.334 333.918L578.336 333.918ZM621.236 333.918L621.236 291.921L654.84 291.921L654.84 302.717L633.234 302.717L633.234 308.122L653.639 308.122L653.639 317.717L633.234 317.717L633.234 323.122L654.84 323.122L654.84 333.918L621.236 333.918ZM685.436 333.918L685.436 291.921L697.434 291.921L697.434 333.918L685.436 333.918ZM715.447 333.918L715.447 302.717L702.234 302.717L702.234 291.921L740.642 291.921L740.642 302.717L727.444 302.717L727.444 333.918L715.447 333.918ZM765 326.535L772.793 320.061Q774.844 322.097 778.199 323.327Q781.553 324.558 784.38 324.558Q787.618 324.558 789.229 323.694Q790.855 322.815 790.855 321.672Q790.855 320.178 789.2 319.372Q787.559 318.552 783.296 318.142Q774.302 317.116 769.322 313.85Q764.341 310.583 764.341 303.801Q764.341 298.161 769.292 294.441Q774.244 290.72 782.403 290.72Q788.584 290.72 793.741 292.946Q798.897 295.158 802.076 299.304L794.283 305.779Q792.246 303.742 788.877 302.512Q785.523 301.281 782.696 301.281Q779.458 301.281 777.832 302.16Q776.221 303.025 776.221 304.153Q776.221 305.661 777.862 306.467Q779.517 307.273 783.78 307.697Q792.774 308.723 797.754 311.989Q802.735 315.256 802.735 322.038Q802.735 327.678 797.784 331.399Q792.847 335.119 784.673 335.119Q778.506 335.119 773.335 332.907Q768.179 330.681 765 326.535ZM807.237 333.918L807.237 291.921L819.234 291.921L819.234 333.918L807.237 333.918ZM827.036 333.918L827.036 291.921L839.034 291.921L852.246 314.597L865.386 291.921L877.383 291.921L877.383 333.918L865.386 333.918L865.386 313.103L856.802 327.912L847.618 327.912L839.034 313.103L839.034 333.918L827.036 333.918ZM909.42 320.72L897.174 320.72L897.174 333.918L885.177 333.918L885.177 291.921L909.42 291.921Q915.484 291.921 919.234 296.242Q922.984 300.564 922.984 306.32Q922.984 312.077 919.234 316.399Q915.484 320.72 909.42 320.72ZM907.017 310.525Q908.702 310.525 909.713 309.631Q910.738 308.723 910.972 307.917Q911.221 307.097 911.221 306.32Q911.221 305.544 910.972 304.738Q910.738 303.918 909.713 303.025Q908.702 302.116 907.017 302.116L897.174 302.116L897.174 310.525L907.017 310.525ZM927.477 333.918L927.477 291.921L939.474 291.921L939.474 323.122L958.678 323.122L958.678 333.918L927.477 333.918ZM964.077 333.918L964.077 291.921L997.68 291.921L997.68 302.717L976.074 302.717L976.074 308.122L996.479 308.122L996.479 317.717L976.074 317.717L976.074 323.122L997.68 323.122L997.68 333.918L964.077 333.918ZM1024.44 326.535L1032.23 320.061Q1034.28 322.097 1037.64 323.327Q1040.99 324.558 1043.82 324.558Q1047.06 324.558 1048.67 323.694Q1050.29 322.815 1050.29 321.672Q1050.29 320.178 1048.64 319.372Q1047 318.552 1042.74 318.142Q1033.74 317.116 1028.76 313.85Q1023.78 310.583 1023.78 303.801Q1023.78 298.161 1028.73 294.441Q1033.68 290.72 1041.84 290.72Q1048.02 290.72 1053.18 292.946Q1058.34 295.158 1061.52 299.304L1053.72 305.779Q1051.69 303.742 1048.32 302.512Q1044.96 301.281 1042.14 301.281Q1038.9 301.281 1037.27 302.16Q1035.66 303.025 1035.66 304.153Q1035.66 305.661 1037.3 306.467Q1038.96 307.273 1043.22 307.697Q1052.21 308.723 1057.19 311.989Q1062.17 315.256 1062.17 322.038Q1062.17 327.678 1057.22 331.399Q1052.29 335.119 1044.11 335.119Q1037.95 335.119 1032.78 332.907Q1027.62 330.681 1024.44 326.535ZM1076.29 333.918L1076.29 302.717L1063.07 302.717L1063.07 291.921L1101.48 291.921L1101.48 302.717L1088.28 302.717L1088.28 333.918L1076.29 333.918ZM1105.98 316.516L1105.98 291.921L1117.98 291.921L1117.98 316.516Q1117.98 319.46 1119.99 321.57Q1121.99 323.664 1125.17 323.664Q1128.37 323.664 1130.37 321.57Q1132.38 319.46 1132.38 316.516L1132.38 291.921L1144.38 291.921L1144.38 316.516Q1144.38 324.323 1138.94 329.729Q1133.52 335.119 1125.17 335.119Q1116.84 335.119 1111.4 329.729Q1105.98 324.323 1105.98 316.516ZM1175.22 320.72L1162.97 320.72L1162.97 333.918L1150.98 333.918L1150.98 291.921L1175.22 291.921Q1181.28 291.921 1185.03 296.242Q1188.78 300.564 1188.78 306.32Q1188.78 312.077 1185.03 316.399Q1181.28 320.72 1175.22 320.72ZM1172.82 310.525Q1174.5 310.525 1175.51 309.631Q1176.54 308.723 1176.77 307.917Q1177.02 307.097 1177.02 306.32Q1177.02 305.544 1176.77 304.738Q1176.54 303.918 1175.51 303.025Q1174.5 302.116 1172.82 302.116L1162.97 302.116L1162.97 310.525L1172.82 310.525ZM1193.28 333.918L1193.28 291.921L1205.27 291.921L1205.27 333.918L1193.28 333.918ZM1229.28 333.918L1213.08 333.918L1213.08 291.921L1229.28 291.921Q1238.58 291.921 1245.02 297.898Q1251.48 303.86 1251.48 312.927Q1251.48 321.98 1245.02 327.956Q1238.58 333.918 1229.28 333.918ZM1229.28 303.318L1225.07 303.318L1225.07 322.522L1229.28 322.522Q1234.08 322.522 1236.78 320.061Q1239.47 317.6 1239.47 312.927Q1239.47 308.239 1236.78 305.779Q1234.08 303.318 1229.28 303.318Z" fill="rgb(197,197,197)" fill-rule="nonzero" />
	<g id="M">
		<rect id="Прямоугольник 11" width="85.352684" height="299.318970" x="213.966309" y="125.724243" fill="rgb(196,196,196)" />
		<rect id="Прямоугольник 2" width="85.352684" height="299.318970" x="0.000000" y="125.724243" fill="rgb(196,196,196)" />
		<g mask="url(#mask_0)">
			<rect id="Прямоугольник 12" width="85.352684" height="260.473389" x="0.000000" y="0.000000" fill="rgb(196,196,196)" transform="matrix(-0.90627,-0.422699,-0.422538,0.906345,291.421,158.847)" />
			<rect id="Прямоугольник 10" width="85.540413" height="79.506599" x="106.304932" y="292.921936" fill="rgb(196,196,196)" />
			<rect id="Прямоугольник 8" width="85.352684" height="247.112061" x="0.000000" y="0.000000" fill="rgb(196,196,196)" transform="matrix(0.90627,-0.422699,0.422537,0.906346,8.06293,161.709)" />
		</g>
	</g>
	<g id="I">
		<rect id="Прямоугольник 14" width="85.352692" height="299.319000" x="0.000000" y="0.000000" fill="rgb(196,196,196)" transform="matrix(0.939693,-0.34202,0.34202,0.939693,306.035,143.775)" />
		<ellipse id="Oval 3" rx="57.291531" ry="57.291523" cx="292.291534" cy="57.291523" fill="rgb(2,120,0)" />
	</g>
</svg>
